<svg xmlns="http://www.w3.org/2000/svg" width="560" height="400" viewBox="0 0 560 400" font-family="-apple-system,Segoe UI,Roboto,sans-serif">
<rect width="560" height="400" fill="#ffffff"/>
<text x="280" y="22" text-anchor="middle" font-size="15" font-weight="600" fill="#1a1a1a">S10  pose NEES vs measurement-noise inflation (perfect calibration)</text>
<rect x="64" y="40" width="346" height="310" fill="#fafafa" stroke="#ddd"/><line x1="64" y1="350" x2="410" y2="350" stroke="#eee" stroke-width="1"/><text x="58" y="353" font-size="9" fill="#666" text-anchor="end">1e0.0</text><line x1="64" y1="288" x2="410" y2="288" stroke="#eee" stroke-width="1"/><text x="58" y="291" font-size="9" fill="#666" text-anchor="end">1e0.3</text><line x1="64" y1="226" x2="410" y2="226" stroke="#eee" stroke-width="1"/><text x="58" y="229" font-size="9" fill="#666" text-anchor="end">1e0.7</text><line x1="64" y1="164" x2="410" y2="164" stroke="#eee" stroke-width="1"/><text x="58" y="167" font-size="9" fill="#666" text-anchor="end">1e1.0</text><line x1="64" y1="101.99999999999999" x2="410" y2="101.99999999999999" stroke="#eee" stroke-width="1"/><text x="58" y="104.99999999999999" font-size="9" fill="#666" text-anchor="end">1e1.3</text><line x1="64" y1="40" x2="410" y2="40" stroke="#eee" stroke-width="1"/><text x="58" y="43" font-size="9" fill="#666" text-anchor="end">1e1.6</text><line x1="64" y1="350" x2="64" y2="354" stroke="#999" stroke-width="1"/><text x="64" y="366" font-size="9" fill="#666" text-anchor="middle">1</text><line x1="150.5" y1="350" x2="150.5" y2="354" stroke="#999" stroke-width="1"/><text x="150.5" y="366" font-size="9" fill="#666" text-anchor="middle">17</text><line x1="237" y1="350" x2="237" y2="354" stroke="#999" stroke-width="1"/><text x="237" y="366" font-size="9" fill="#666" text-anchor="middle">33</text><line x1="323.5" y1="350" x2="323.5" y2="354" stroke="#999" stroke-width="1"/><text x="323.5" y="366" font-size="9" fill="#666" text-anchor="middle">48</text><line x1="410" y1="350" x2="410" y2="354" stroke="#999" stroke-width="1"/><text x="410" y="366" font-size="9" fill="#666" text-anchor="middle">64</text><line x1="64" y1="201.97849282956295" x2="410" y2="201.97849282956295" stroke="#000" stroke-width="1" stroke-dasharray="4 3"/><text x="406" y="197.97849282956295" font-size="9" fill="#000" text-anchor="end">dof = 6 (consistent)</text><polyline points="64,40 69.4920634920635,62.723050734225964 80.47619047619048,84.90929913032093 102.44444444444444,112.35680846363807 146.38095238095238,153.9980489947968 234.25396825396825,200.77985084782944 410,255.55700622025992" fill="none" stroke="#2a6fdb" stroke-width="2"/><line x1="422" y1="46" x2="440" y2="46" stroke="#2a6fdb" stroke-width="2.5"/><text x="444" y="49" font-size="10" fill="#333" text-anchor="start">6-DoF pose NEES</text><text x="237" y="388" font-size="11" fill="#333" text-anchor="middle">R variance multiplier (×)</text><text x="18" y="195" font-size="11" fill="#333" text-anchor="middle" transform="rotate(-90 18 195)">pose NEES (target = dof = 6)</text>
</svg>