<svg xmlns="http://www.w3.org/2000/svg" width="560" height="400" viewBox="0 0 560 400" font-family="-apple-system,Segoe UI,Roboto,sans-serif">
<rect width="560" height="400" fill="#ffffff"/>
<text x="280" y="22" text-anchor="middle" font-size="15" font-weight="600" fill="#1a1a1a">S0.4  Reprojection bias vs extrinsic translation error</text>
<rect x="64" y="40" width="346" height="310" fill="#fafafa" stroke="#ddd"/><line x1="64" y1="350" x2="410" y2="350" stroke="#eee" stroke-width="1"/><text x="58" y="353" font-size="9" fill="#666" text-anchor="end">0.00</text><line x1="64" y1="288" x2="410" y2="288" stroke="#eee" stroke-width="1"/><text x="58" y="291" font-size="9" fill="#666" text-anchor="end">0.85</text><line x1="64" y1="226" x2="410" y2="226" stroke="#eee" stroke-width="1"/><text x="58" y="229" font-size="9" fill="#666" text-anchor="end">1.69</text><line x1="64" y1="164" x2="410" y2="164" stroke="#eee" stroke-width="1"/><text x="58" y="167" font-size="9" fill="#666" text-anchor="end">2.54</text><line x1="64" y1="101.99999999999999" x2="410" y2="101.99999999999999" stroke="#eee" stroke-width="1"/><text x="58" y="104.99999999999999" font-size="9" fill="#666" text-anchor="end">3.39</text><line x1="64" y1="40" x2="410" y2="40" stroke="#eee" stroke-width="1"/><text x="58" y="43" font-size="9" fill="#666" text-anchor="end">4.24</text><line x1="64" y1="350" x2="64" y2="354" stroke="#999" stroke-width="1"/><text x="64" y="366" font-size="9" fill="#666" text-anchor="middle">-20</text><line x1="150.5" y1="350" x2="150.5" y2="354" stroke="#999" stroke-width="1"/><text x="150.5" y="366" font-size="9" fill="#666" text-anchor="middle">-10</text><line x1="237" y1="350" x2="237" y2="354" stroke="#999" stroke-width="1"/><text x="237" y="366" font-size="9" fill="#666" text-anchor="middle">0</text><line x1="323.5" y1="350" x2="323.5" y2="354" stroke="#999" stroke-width="1"/><text x="323.5" y="366" font-size="9" fill="#666" text-anchor="middle">10</text><line x1="410" y1="350" x2="410" y2="354" stroke="#999" stroke-width="1"/><text x="410" y="366" font-size="9" fill="#666" text-anchor="middle">20</text><polyline points="64,41.55048292530943 81.3,72.32453241689247 98.6,103.11394771377587 115.9,133.92019222598827 133.2,164.74107083848673 150.5,195.57877866631415 167.8,226.431852299442 185.1,257.3002917378702 202.4,288.1846823456102 219.70000000000002,319.0845850996535 237,350 254.3,319.06907295335026 271.6,288.1226337603973 288.9,257.1605360801382 306.2,226.18380429959305 323.5,195.19097500873323 340.8,164.18277991257304 358.09999999999997,133.15995071612676 375.40000000000003,102.12175571438013 392.7,71.06819490733308 410,40" fill="none" stroke="#2a6fdb" stroke-width="2"/><line x1="422" y1="46" x2="440" y2="46" stroke="#2a6fdb" stroke-width="2.5"/><text x="444" y="49" font-size="10" fill="#333" text-anchor="start">2 m depth</text><polyline points="64,283.10789344486716 81.3,289.7964821511183 98.6,296.4852171983723 115.9,303.17409858662916 133.2,309.8630531453874 150.5,316.55222721564996 167.8,323.241474456414 185.1,329.93094120868227 202.4,336.620481131452 219.70000000000002,343.31016739522454 237,350 254.3,343.310035688322 271.6,336.61989576744054 288.9,329.92969731015796 306.2,323.23935251187254 323.5,316.54878820208273 340.8,309.85815072179156 358.09999999999997,303.16736690049754 375.40000000000003,296.4765099087021 392.7,289.78543340540233 410,283.0942837316012" fill="none" stroke="#22a06b" stroke-width="2"/><line x1="422" y1="64" x2="440" y2="64" stroke="#22a06b" stroke-width="2.5"/><text x="444" y="67" font-size="10" fill="#333" text-anchor="start">10 m depth</text><text x="237" y="388" font-size="11" fill="#333" text-anchor="middle">extrinsic translation error (mm)</text><text x="18" y="195" font-size="11" fill="#333" text-anchor="middle" transform="rotate(-90 18 195)">reprojection bias (px)</text>
</svg>