<svg xmlns="http://www.w3.org/2000/svg" width="560" height="400" viewBox="0 0 560 400" font-family="-apple-system,Segoe UI,Roboto,sans-serif">
<rect width="560" height="400" fill="#ffffff"/>
<text x="280" y="22" text-anchor="middle" font-size="15" font-weight="600" fill="#1a1a1a">S0.3  Cost of an unmodeled camera–IMU time offset</text>
<rect x="64" y="40" width="346" height="310" fill="#fafafa" stroke="#ddd"/><line x1="64" y1="350" x2="410" y2="350" stroke="#eee" stroke-width="1"/><text x="58" y="353" font-size="9" fill="#666" text-anchor="end">0.00</text><line x1="64" y1="288" x2="410" y2="288" stroke="#eee" stroke-width="1"/><text x="58" y="291" font-size="9" fill="#666" text-anchor="end">1.73</text><line x1="64" y1="226" x2="410" y2="226" stroke="#eee" stroke-width="1"/><text x="58" y="229" font-size="9" fill="#666" text-anchor="end">3.47</text><line x1="64" y1="164" x2="410" y2="164" stroke="#eee" stroke-width="1"/><text x="58" y="167" font-size="9" fill="#666" text-anchor="end">5.20</text><line x1="64" y1="101.99999999999999" x2="410" y2="101.99999999999999" stroke="#eee" stroke-width="1"/><text x="58" y="104.99999999999999" font-size="9" fill="#666" text-anchor="end">6.93</text><line x1="64" y1="40" x2="410" y2="40" stroke="#eee" stroke-width="1"/><text x="58" y="43" font-size="9" fill="#666" text-anchor="end">8.66</text><line x1="64" y1="350" x2="64" y2="354" stroke="#999" stroke-width="1"/><text x="64" y="366" font-size="9" fill="#666" text-anchor="middle">-10</text><line x1="150.5" y1="350" x2="150.5" y2="354" stroke="#999" stroke-width="1"/><text x="150.5" y="366" font-size="9" fill="#666" text-anchor="middle">-5</text><line x1="237" y1="350" x2="237" y2="354" stroke="#999" stroke-width="1"/><text x="237" y="366" font-size="9" fill="#666" text-anchor="middle">0</text><line x1="323.5" y1="350" x2="323.5" y2="354" stroke="#999" stroke-width="1"/><text x="323.5" y="366" font-size="9" fill="#666" text-anchor="middle">5</text><line x1="410" y1="350" x2="410" y2="354" stroke="#999" stroke-width="1"/><text x="410" y="366" font-size="9" fill="#666" text-anchor="middle">10</text><line x1="64" y1="314.221824686941" x2="410" y2="314.221824686941" stroke="#000" stroke-width="1" stroke-dasharray="4 3"/><text x="406" y="310.221824686941" font-size="9" fill="#000" text-anchor="end">1 px (1σ budget)</text><polyline points="64,307.61216457960643 81.3,311.8508050089446 98.6,316.0896958855098 115.9,320.3284794275492 133.2,324.56726296958857 150.5,328.8060465116279 167.8,333.04486583184257 185.1,337.28364937388193 202.4,341.5224329159213 219.70000000000002,345.76121645796064 237,350 254.3,345.76121645796064 271.6,341.5224329159213 288.9,337.28364937388193 306.2,333.04486583184257 323.5,328.8060465116279 340.8,324.56726296958857 358.09999999999997,320.3284794275492 375.40000000000003,316.0896958855098 392.7,311.8508050089446 410,307.61216457960643" fill="none" stroke="#2a6fdb" stroke-width="2"/><line x1="422" y1="46" x2="440" y2="46" stroke="#2a6fdb" stroke-width="2.5"/><text x="444" y="49" font-size="10" fill="#333" text-anchor="start">slow (0.12 px/ms)</text><polyline points="64,219.6726296958855 81.3,232.70554561717353 98.6,245.7381037567084 115.9,258.77101967799643 133.2,271.8035778175313 150.5,284.8364937388193 167.8,297.8690518783542 185.1,310.90196779964225 202.4,323.93456171735244 219.70000000000002,336.96726296958855 237,350 254.3,336.96726296958855 271.6,323.93456171735244 288.9,310.90196779964225 306.2,297.8690518783542 323.5,284.8364937388193 340.8,271.8035778175313 358.09999999999997,258.77101967799643 375.40000000000003,245.7381037567084 392.7,232.70554561717353 410,219.6726296958855" fill="none" stroke="#22a06b" stroke-width="2"/><line x1="422" y1="64" x2="440" y2="64" stroke="#22a06b" stroke-width="2.5"/><text x="444" y="67" font-size="10" fill="#333" text-anchor="start">medium (0.36 px/ms)</text><polyline points="64,40 81.3,71.00000000000003 98.6,101.99999999999999 115.9,133 133.2,164 150.5,195 167.8,226 185.1,257 202.4,288 219.70000000000002,319 237,350 254.3,319 271.6,288 288.9,257 306.2,226 323.5,195 340.8,164 358.09999999999997,133 375.40000000000003,101.99999999999999 392.7,71.00000000000003 410,40" fill="none" stroke="#d1495b" stroke-width="2"/><line x1="422" y1="82" x2="440" y2="82" stroke="#d1495b" stroke-width="2.5"/><text x="444" y="85" font-size="10" fill="#333" text-anchor="start">fast_aggressive (0.87 px/ms)</text><text x="237" y="388" font-size="11" fill="#333" text-anchor="middle">time offset t_d (ms)</text><text x="18" y="195" font-size="11" fill="#333" text-anchor="middle" transform="rotate(-90 18 195)">reprojection error (px)</text>
</svg>