<svg xmlns="http://www.w3.org/2000/svg" width="560" height="400" viewBox="0 0 560 400" font-family="-apple-system,Segoe UI,Roboto,sans-serif">
<rect width="560" height="400" fill="#ffffff"/>
<text x="280" y="22" text-anchor="middle" font-size="15" font-weight="600" fill="#1a1a1a">Pipeline  position error vs time</text>
<rect x="64" y="40" width="346" height="310" fill="#fafafa" stroke="#ddd"/><line x1="64" y1="350" x2="410" y2="350" stroke="#eee" stroke-width="1"/><text x="58" y="353" font-size="9" fill="#666" text-anchor="end">0.00</text><line x1="64" y1="288" x2="410" y2="288" stroke="#eee" stroke-width="1"/><text x="58" y="291" font-size="9" fill="#666" text-anchor="end">0.19</text><line x1="64" y1="226" x2="410" y2="226" stroke="#eee" stroke-width="1"/><text x="58" y="229" font-size="9" fill="#666" text-anchor="end">0.39</text><line x1="64" y1="164" x2="410" y2="164" stroke="#eee" stroke-width="1"/><text x="58" y="167" font-size="9" fill="#666" text-anchor="end">0.58</text><line x1="64" y1="101.99999999999999" x2="410" y2="101.99999999999999" stroke="#eee" stroke-width="1"/><text x="58" y="104.99999999999999" font-size="9" fill="#666" text-anchor="end">0.78</text><line x1="64" y1="40" x2="410" y2="40" stroke="#eee" stroke-width="1"/><text x="58" y="43" font-size="9" fill="#666" text-anchor="end">0.97</text><line x1="64" y1="350" x2="64" y2="354" stroke="#999" stroke-width="1"/><text x="64" y="366" font-size="9" fill="#666" text-anchor="middle">2</text><line x1="150.5" y1="350" x2="150.5" y2="354" stroke="#999" stroke-width="1"/><text x="150.5" y="366" font-size="9" fill="#666" text-anchor="middle">5</text><line x1="237" y1="350" x2="237" y2="354" stroke="#999" stroke-width="1"/><text x="237" y="366" font-size="9" fill="#666" text-anchor="middle">8</text><line x1="323.49999999999994" y1="350" x2="323.49999999999994" y2="354" stroke="#999" stroke-width="1"/><text x="323.49999999999994" y="366" font-size="9" fill="#666" text-anchor="middle">11</text><line x1="410" y1="350" x2="410" y2="354" stroke="#999" stroke-width="1"/><text x="410" y="366" font-size="9" fill="#666" text-anchor="middle">14</text><polyline points="64,346.9162232160737 65.38955823293173,331.88892494595717 66.77911646586345,313.4735690849435 68.16867469879517,320.2825127212418 69.5582329317269,285.59325915390264 70.94779116465864,286.2022664605937 72.33734939759036,250.59810118457736 73.72690763052209,324.6612848069093 75.11646586345381,320.02945474524137 76.50602409638554,271.0448927616006 77.89558232931726,227.93175971615327 79.285140562249,208.72590409390355 80.67469879518073,200.5764121733683 82.06425702811245,192.26933603076716 83.45381526104418,178.96286064912994 84.8433734939759,169.14615949433386 86.23293172690762,161.4926599333515 87.62248995983936,152.49221321366036 89.01204819277109,143.64457543657863 90.40160642570282,136.09995224720544 91.79116465863454,123.49926316924515 93.18072289156626,116.14978973366264 94.570281124498,113.7188541383188 95.95983935742971,108.46381827237575 97.34939759036146,103.4755613520716 98.73895582329317,97.5535781220315 100.1285140562249,92.23136999173312 101.51807228915663,86.3020646665263 102.90763052208835,80.56440722350874 104.29718875502009,74.51954013545361 105.6867469879518,73.11624467915769 107.07630522088354,66.42193958501281 108.46586345381527,59.57800906789623 109.855421686747,102.27028081724029 111.24497991967873,97.66022602989426 112.63453815261045,92.7792537213804 114.02409638554217,87.53727028595193 115.4136546184739,81.85373267677517 116.80321285140562,75.47013909926933 118.19277108433735,68.57909249151487 119.58232931726909,60.97366407706173 120.97188755020079,57.054433051095515 122.36144578313254,48.861645263487596 123.75100401606426,40 125.14056224899599,128.94944878897888 126.53012048192771,125.48323260745663 127.91967871485943,121.2625222718007 129.30923694779116,117.32355342408074 130.6987951807229,112.73546492223481 132.08835341365463,108.40842503067992 133.47791164658634,105.42674053801478 134.86746987951807,101.48904509814997 136.2570281124498,98.31825953900584 137.64658634538154,92.50738114432124 139.03614457831327,88.5499478827027 140.42570281124497,174.82428512012652 141.8152610441767,169.9729195442432 143.2048192771084,163.4333335044903 144.59437751004018,157.46900946326886 145.98393574297188,152.62019070309572 147.3734939759036,146.70489286429478 148.76305220883535,139.10010115376912 150.15261044176708,132.50957879981308 151.54216867469881,122.94787756799637 152.93172690763055,117.81922743166987 154.32128514056225,115.29533306290531 155.710843373494,165.5621530862169 157.1004016064257,160.6744953864639 158.48995983935745,158.08279204941644 159.87951807228916,152.73129553845126 161.2690763052209,143.67099864957152 162.65863453815263,145.3840505666152 164.04819277108433,146.35757087182225 165.4377510040161,138.27970814313517 166.8273092369478,139.79729195442434 168.21686746987953,151.52283148398226 169.60642570281124,159.5379788758068 170.99598393574297,216.68438483617712 172.3855421686747,218.06539565500913 173.77510040160644,221.76432712204692 175.16465863453817,223.23734165840833 176.55421686746988,221.61438334711147 177.94377510040158,228.52898800018482 179.33333333333334,227.40361380825968 180.72289156626508,228.5996621361417 182.11244979919678,232.1171329838308 183.50200803212851,234.0027316652375 184.89156626506025,235.13128937680037 186.28112449799198,247.77718443361593 187.67068273092372,248.33048014664732 189.06024096385542,249.21549860592648 190.44979919678713,250.22244586732938 191.83935742971886,250.758868926281 193.22891566265062,251.65566640821964 194.61847389558233,253.00420532674724 196.00803212851406,252.90742632976128 197.3975903614458,254.97002870302384 198.78714859437753,254.64085277248617 200.17670682730926,255.18364287071316 201.566265060241,259.52278013689136 202.9558232931727,261.281356384754 204.3453815261044,262.51879046792607 205.73493975903614,261.3322926989572 207.12449799196787,262.8476480464999 208.5140562248996,265.4603626131561 209.90361445783134,266.2053062083768 211.29317269076307,268.838713652678 212.68273092369478,269.82496803643585 214.07228915662654,269.40283333247754 215.46184738955824,269.92779572073346 216.85140562248995,268.92435033093204 218.24096385542168,266.4189203760661 219.63052208835342,268.6562979774381 221.02008032128515,268.34017447741496 222.40963855421688,268.48024934147355 223.79919678714862,270.3989566271123 225.18875502008032,271.2932072933408 226.57831325301206,271.2228515093477 227.9678714859438,266.1893886101883 229.35742971887552,263.8415428773883 230.74698795180726,266.3425159047614 232.13654618473896,264.9245762581321 233.52610441767067,266.31290917213084 234.91566265060243,267.89830195170293 236.30522088353413,269.75779577208056 237.69477911646587,274.3185060050423 239.08433734939757,276.90861758227084 240.47389558232933,277.52144511252715 241.86345381526107,281.55337273366774 243.25301204819277,286.44198548931206 244.6425702811245,288.13561793656584 246.03212851405627,290.24215288082854 247.42168674698797,262.38794781081674 248.8112449799197,265.8032276781359 250.20080321285138,263.2048389498493 251.59036144578317,263.1080599528634 252.9799196787149,263.9154005329828 254.36947791164658,256.737518805872 255.75903614457832,262.0848767413082 257.14859437751,263.0377041688703 258.5381526104418,254.7188490036097 259.9277108433735,250.3599739156778 261.31726907630525,251.16954295954363 262.7068273092369,215.0585613572063 264.09638554216866,213.77719470303407 265.4859437751004,212.309273798093 266.8755020080322,211.78558481769215 268.26506024096386,210.92571616355076 269.6546184738956,208.5629078884536 271.04417670682733,208.13440614521986 272.43373493975906,202.78099952247203 273.8232931726908,199.45644996482724 275.2128514056225,194.14347404147819 276.60240963855426,191.77175191139548 277.99196787148594,198.58257382428 279.38152610441773,196.64221860510492 280.7710843373494,196.11311764132003 282.1606425702811,194.5009832967913 283.5502008032129,194.31029047049338 284.93975903614455,199.3743151581747 286.32931726907634,194.50480352035657 287.718875502008,195.75815520171705 289.10843373493975,198.3998397970763 290.4979919678715,195.50984066997682 291.88755020080316,195.7909454539853 293.27710843373495,195.5397657545712 294.6666666666667,193.8502718828465 296.0562248995984,189.9679696846775 297.44578313253015,190.33789466657768 298.8353413654619,189.55984246712504 300.22489959839356,189.73207087952431 301.61445783132535,187.70926250173295 303.00401606425703,185.064394386736 304.3935742971888,182.6748445466822 305.7831325301205,182.2886836146298 307.17269076305223,181.3151633094227 308.56224899598396,180.34005124439676 309.95180722891564,180.31872166282417 311.34136546184743,181.77709200885224 312.7309236947791,182.32051881100676 314.12048192771084,180.94810349519648 315.5100401606426,181.15312215986404 316.89959839357425,180.96911472480525 318.28915662650604,182.7219606373201 319.6787148594377,181.95154888499795 321.0682730923695,182.62549999229793 322.45783132530124,183.1176721282856 323.8473895582329,184.37516238517506 325.23694779116465,184.36051819484166 326.6265060240964,186.64692199863416 328.0160642570281,186.4740568823073 329.40562248995985,184.39617361478386 330.7951807228916,186.7729893762869 332.1847389558233,186.9713226497153 333.57429718875505,192.2941674839412 334.9638554216868,191.42347486303166 336.3534136546185,191.50465461379284 337.7429718875502,192.10060948996934 339.132530120482,203.01403315995134 340.5220883534136,203.457815797446 341.9116465863454,207.75174708476894 343.3012048192772,212.1844798282953 344.6907630522088,212.14818770442562 346.0803212851406,215.39856125451212 347.4698795180723,219.05356015054963 348.859437751004,218.80524561880947 350.24899598393574,221.10693031686293 351.6385542168675,221.70957058427854 353.0281124497992,222.17404609941826 354.41767068273094,218.60914080912747 355.8072289156627,214.3327188798119 357.1967871485944,211.72095936904694 358.58634538152614,211.09062248078334 359.9759036144579,211.06324421189916 361.36546184738955,211.79895560017047 362.7550200803213,208.13758966485756 364.1445783132531,206.65438786565548 365.53413654618475,204.004744471202 366.9236947791165,204.02957592437602 368.31325301204816,201.85682377164923 369.7028112449799,196.1271251277259 371.0923694779117,193.99130180279636 372.48192771084337,191.79881182831588 373.8714859437751,189.1112845501738 375.26104417670683,187.0493188808388 376.65060240963857,184.0421662310722 378.0401606425703,183.1396384137857 379.42971887550203,182.37495699681133 380.81927710843377,185.0156865362793 382.20883534136544,182.77544376723336 383.59839357429723,180.13439587580166 384.98795180722897,203.48423901043887 386.37751004016064,201.24717976103065 387.7670682730924,204.70480043953108 389.1566265060241,208.0952488536762 390.54618473895584,207.42161609833994 391.9357429718876,205.47298372810687 393.3253012048193,210.8827386484419 394.71485943775104,208.46008020415604 396.1044176706827,206.47451900612572 397.4939759036145,204.94451946824952 398.88353413654625,203.2811304575539 400.2730923694779,214.62687609433488 401.66265060240966,213.49290639938795 403.05220883534133,211.08839401703696 404.4417670682731,211.27876849137112 405.83132530120486,209.52846939456643 407.22088353413653,207.30764609531045 408.61044176706827,200.7123484618979 410,199.64841619898024" fill="none" stroke="#2a6fdb" stroke-width="2"/><line x1="422" y1="46" x2="440" y2="46" stroke="#2a6fdb" stroke-width="2.5"/><text x="444" y="49" font-size="10" fill="#333" text-anchor="start">position error</text><text x="237" y="388" font-size="11" fill="#333" text-anchor="middle">time (s)</text><text x="18" y="195" font-size="11" fill="#333" text-anchor="middle" transform="rotate(-90 18 195)">position error (m)</text>
</svg>