<svg xmlns="http://www.w3.org/2000/svg" width="560" height="400" viewBox="0 0 560 400" font-family="-apple-system,Segoe UI,Roboto,sans-serif">
<rect width="560" height="400" fill="#ffffff"/>
<text x="280" y="22" text-anchor="middle" font-size="15" font-weight="600" fill="#1a1a1a">S0.4  Reprojection bias vs extrinsic rotation error</text>
<rect x="64" y="40" width="346" height="310" fill="#fafafa" stroke="#ddd"/><line x1="64" y1="350" x2="410" y2="350" stroke="#eee" stroke-width="1"/><text x="58" y="353" font-size="9" fill="#666" text-anchor="end">0.00</text><line x1="64" y1="288" x2="410" y2="288" stroke="#eee" stroke-width="1"/><text x="58" y="291" font-size="9" fill="#666" text-anchor="end">3.21</text><line x1="64" y1="226" x2="410" y2="226" stroke="#eee" stroke-width="1"/><text x="58" y="229" font-size="9" fill="#666" text-anchor="end">6.43</text><line x1="64" y1="164" x2="410" y2="164" stroke="#eee" stroke-width="1"/><text x="58" y="167" font-size="9" fill="#666" text-anchor="end">9.64</text><line x1="64" y1="101.99999999999999" x2="410" y2="101.99999999999999" stroke="#eee" stroke-width="1"/><text x="58" y="104.99999999999999" font-size="9" fill="#666" text-anchor="end">12.86</text><line x1="64" y1="40" x2="410" y2="40" stroke="#eee" stroke-width="1"/><text x="58" y="43" font-size="9" fill="#666" text-anchor="end">16.07</text><line x1="64" y1="350" x2="64" y2="354" stroke="#999" stroke-width="1"/><text x="64" y="366" font-size="9" fill="#666" text-anchor="middle">-2.0</text><line x1="150.5" y1="350" x2="150.5" y2="354" stroke="#999" stroke-width="1"/><text x="150.5" y="366" font-size="9" fill="#666" text-anchor="middle">-1.0</text><line x1="237" y1="350" x2="237" y2="354" stroke="#999" stroke-width="1"/><text x="237" y="366" font-size="9" fill="#666" text-anchor="middle">0.0</text><line x1="323.5" y1="350" x2="323.5" y2="354" stroke="#999" stroke-width="1"/><text x="323.5" y="366" font-size="9" fill="#666" text-anchor="middle">1.0</text><line x1="410" y1="350" x2="410" y2="354" stroke="#999" stroke-width="1"/><text x="410" y="366" font-size="9" fill="#666" text-anchor="middle">2.0</text><polyline points="64,40 81.3,71.01871153618787 98.6,102.03163599932796 115.9,133.04263143811875 133.2,164.0480327062967 150.5,195.0501546330809 167.8,226.04861141360146 185.1,257.04263143811875 202.4,288.0327934139375 219.70000000000002,319.01851863375293 237,350 254.3,319.0227624873213 271.6,288.05015463308087 288.9,257.08179063240885 306.2,226.11805629017505 323.5,195.15875870394453 340.8,164.20409077615224 358.09999999999997,133.25482411653797 375.40000000000003,102.30941550562218 392.7,71.3678649434049 410,40.43210145423547" fill="none" stroke="#2a6fdb" stroke-width="2"/><line x1="422" y1="46" x2="440" y2="46" stroke="#2a6fdb" stroke-width="2.5"/><text x="444" y="49" font-size="10" fill="#333" text-anchor="start">2 m depth</text><polyline points="64,40.95872510158486 81.3,71.87519834726172 98.6,102.78781354423998 115.9,133.69657069251974 133.2,164.6047491334947 150.5,195.50964823307592 167.8,226.4120396010031 185.1,257.31230904214607 202.4,288.2102636540699 219.70000000000002,319.1060963392096 237,350 254.3,319.10802536355885 271.6,288.217979751467 288.9,257.32947735885455 306.2,226.4425181857215 323.5,195.55710223206782 340.8,164.67322949789363 358.09999999999997,133.79109288563373 375.40000000000003,102.9093420782437 392.7,72.02759127085368 410,41.14776948781292" fill="none" stroke="#22a06b" stroke-width="2"/><line x1="422" y1="64" x2="440" y2="64" stroke="#22a06b" stroke-width="2.5"/><text x="444" y="67" font-size="10" fill="#333" text-anchor="start">10 m depth</text><text x="237" y="388" font-size="11" fill="#333" text-anchor="middle">extrinsic rotation error (deg)</text><text x="18" y="195" font-size="11" fill="#333" text-anchor="middle" transform="rotate(-90 18 195)">reprojection bias (px)</text>
</svg>