<svg xmlns="http://www.w3.org/2000/svg" width="560" height="400" viewBox="0 0 560 400" font-family="-apple-system,Segoe UI,Roboto,sans-serif">
<rect width="560" height="400" fill="#ffffff"/>
<text x="280" y="22" text-anchor="middle" font-size="15" font-weight="600" fill="#1a1a1a">S0.5  IMU dead-reckoning drift — gravity leakage</text>
<rect x="64" y="40" width="346" height="310" fill="#fafafa" stroke="#ddd"/><line x1="64" y1="350" x2="410" y2="350" stroke="#eee" stroke-width="1"/><text x="58" y="353" font-size="9" fill="#666" text-anchor="end">1e-3.0</text><line x1="64" y1="288" x2="410" y2="288" stroke="#eee" stroke-width="1"/><text x="58" y="291" font-size="9" fill="#666" text-anchor="end">1e-1.2</text><line x1="64" y1="226" x2="410" y2="226" stroke="#eee" stroke-width="1"/><text x="58" y="229" font-size="9" fill="#666" text-anchor="end">1e0.6</text><line x1="64" y1="164" x2="410" y2="164" stroke="#eee" stroke-width="1"/><text x="58" y="167" font-size="9" fill="#666" text-anchor="end">1e2.4</text><line x1="64" y1="101.99999999999999" x2="410" y2="101.99999999999999" stroke="#eee" stroke-width="1"/><text x="58" y="104.99999999999999" font-size="9" fill="#666" text-anchor="end">1e4.2</text><line x1="64" y1="40" x2="410" y2="40" stroke="#eee" stroke-width="1"/><text x="58" y="43" font-size="9" fill="#666" text-anchor="end">1e6.0</text><line x1="64" y1="350" x2="64" y2="354" stroke="#999" stroke-width="1"/><text x="64" y="366" font-size="9" fill="#666" text-anchor="middle">0</text><line x1="150.5" y1="350" x2="150.5" y2="354" stroke="#999" stroke-width="1"/><text x="150.5" y="366" font-size="9" fill="#666" text-anchor="middle">3</text><line x1="237" y1="350" x2="237" y2="354" stroke="#999" stroke-width="1"/><text x="237" y="366" font-size="9" fill="#666" text-anchor="middle">5</text><line x1="323.5" y1="350" x2="323.5" y2="354" stroke="#999" stroke-width="1"/><text x="323.5" y="366" font-size="9" fill="#666" text-anchor="middle">8</text><line x1="410" y1="350" x2="410" y2="354" stroke="#999" stroke-width="1"/><text x="410" y="366" font-size="9" fill="#666" text-anchor="middle">10</text><line x1="64" y1="350" x2="410" y2="350" stroke="#bbb" stroke-width="1"/><polyline points="64,350 70.92346173086543,350 77.84692346173087,350 84.7703851925963,350 91.69384692346173,350 98.61730865432716,350 105.54077038519262,350 112.46423211605804,350 119.38769384692347,350 126.3111555777889,350 133.23461730865432,350 140.15807903951978,350 147.08154077038517,350 154.00500250125063,350 160.92846423211608,350 167.8519259629815,350 174.77538769384694,350 181.69884942471236,350 188.6223111555778,350 195.54577288644325,350 202.46923461730867,350 209.3926963481741,350 216.31615807903955,350 223.23961980990498,350 230.16308154077038,350 237.08654327163583,350 244.01000500250126,350 250.9334667333667,350 257.85692846423217,350 264.78039019509754,350 271.703851925963,350 278.62731365682845,350 285.5507753876939,350 292.47423711855936,350 299.3976988494247,350 306.32116058029015,350 313.2446223111556,350 320.16808404202106,350 327.0915457728865,350 334.01500750375186,350 340.93846923461734,350 347.8619309654827,350 354.78539269634814,350 361.7088544272136,350 368.632316158079,350 375.5557778889445,350 382.4792396198099,350 389.40270135067533,350 396.32616308154076,350 403.2496248124062,350 410,350" fill="none" stroke="#2a6fdb" stroke-width="2"/><line x1="422" y1="46" x2="440" y2="46" stroke="#2a6fdb" stroke-width="2.5"/><text x="444" y="49" font-size="10" fill="#333" text-anchor="start">ideal</text><polyline points="64,267.6149840070716 70.92346173086543,156.40916574303895 77.84692346173087,136.01971418976277 84.7703851925963,124.00125594006266 91.69384692346173,115.44833478852327 98.61730865432716,108.80335304400107 105.54077038519262,103.36840268550057 112.46423211605804,98.77002100404204 119.38769384692347,94.78465730732975 126.3111555777889,91.26792791340831 133.23461730865432,88.12112639045982 140.15807903951978,85.2737498922403 147.08154077038517,82.67379222337019 154.00500250125063,80.28164506346397 160.92846423211608,78.06653326479162 167.8519259629815,76.00404921216327 174.77538769384694,74.07443466996298 181.69884942471236,72.26184635021835 188.6223111555778,70.55258578848691 195.54577288644325,68.93573073032704 202.46923461730867,67.40160181748628 209.3926963481741,65.94232727093771 216.31615807903955,64.5509345504341 223.23961980990498,63.22123896384621 230.16308154077038,61.94807377770178 237.08654327163583,60.72688947452452 244.01000500250126,59.55354739533388 250.9334667333667,58.424440678091315 257.85692846423217,57.33640406880828 264.78039019509754,56.28646120455303 271.703851925963,55.27212286325677 278.62731365682845,54.2910114513706 285.5507753876939,53.34101950120083 292.47423711855936,52.420268842706946 299.3976988494247,51.52694546200829 306.32116058029015,50.65952695137755 313.2446223111556,49.81652237729816 320.16808404202106,48.99659531666644 327.0915457728865,48.19854252863591 334.01500750375186,47.421175978536624 340.93846923461734,46.66349941969865 347.8619309654827,45.9245163847246 354.78539269634814,45.20332684049306 361.7088544272136,44.499094214562206 368.632316158079,43.81105925403947 375.5557778889445,43.13847406114242 382.4792396198099,42.48066017400083 389.40270135067533,41.836982852501976 396.32616308154076,41.206847401304806 403.2496248124062,40.58971174737134 410,40" fill="none" stroke="#22a06b" stroke-width="2"/><line x1="422" y1="64" x2="440" y2="64" stroke="#22a06b" stroke-width="2.5"/><text x="444" y="67" font-size="10" fill="#333" text-anchor="start">gravity_sign</text><polyline points="64,348.9855550898839 70.92346173086543,237.7797119312818 77.84692346173087,217.3902998290648 84.7703851925963,205.37178385099767 91.69384692346173,196.8188966007223 98.61730865432716,190.17390016975418 105.54077038519262,184.73898092916662 112.46423211605804,180.1405797640122 119.38769384692347,176.15524892077616 126.3111555777889,172.63843370988047 133.23461730865432,169.4916933540404 140.15807903951978,166.64434038055762 147.08154077038517,164.0443312810877 154.00500250125063,161.65221569228174 160.92846423211608,159.43709687529855 167.8519259629815,157.37458127312308 174.77538769384694,155.44506211319904 181.69884942471236,153.632356039483 188.6223111555778,151.9231254116923 195.54577288644325,150.30624205379294 202.46923461730867,148.77218986651175 209.3926963481741,147.3128955587444 216.31615807903955,145.9214473836892 223.23961980990498,144.59178093007355 230.16308154077038,143.3186583988816 237.08654327163583,142.09749381497448 244.01000500250126,140.9240934604946 250.9334667333667,139.79499901822828 257.85692846423217,138.70698226135278 264.78039019509754,137.65705198167308 271.703851925963,136.64263560065515 278.62731365682845,135.66159403663326 285.5507753876939,134.71162246933977 292.47423711855936,133.7908162093689 299.3976988494247,132.89751579637192 306.32116058029015,132.03005233265935 313.2446223111556,131.18704271859295 320.16808404202106,130.3671443471167 327.0915457728865,129.56906187480732 334.01500750375186,128.79172354484584 340.93846923461734,128.03402242491597 347.8619309654827,127.29504420304853 354.78539269634814,126.57388478566315 361.7088544272136,125.86965685466929 368.632316158079,125.18162992291312 375.5557778889445,124.50903132416232 382.4792396198099,123.85118533779405 389.40270135067533,123.20753871188512 396.32616308154076,122.57741323844455 403.2496248124062,121.96025340150173 410,121.3705361027297" fill="none" stroke="#d1495b" stroke-width="2"/><line x1="422" y1="82" x2="440" y2="82" stroke="#d1495b" stroke-width="2.5"/><text x="444" y="85" font-size="10" fill="#333" text-anchor="start">tilt_0.5deg</text><polyline points="64,350 70.92346173086543,245.831415002864 77.84692346173087,225.44206972903805 84.7703851925963,213.42359716211735 91.69384692346173,204.87069867797814 98.61730865432716,198.22570464257444 105.54077038519262,192.79077912085324 112.46423211605804,188.19236958986664 119.38769384692347,184.20698960549615 126.3111555777889,180.69025027659583 133.23461730865432,177.54338293814507 140.15807903951978,174.69604420403434 147.08154077038517,172.09608688208047 154.00500250125063,169.7039403826091 160.92846423211608,167.48882941796438 167.8519259629815,165.42634628838888 174.77538769384694,163.49680699981795 181.69884942471236,161.68410585903248 188.6223111555778,159.9748974866008 195.54577288644325,158.35799998363174 202.46923461730867,156.82395116801064 209.3926963481741,155.3646730606721 216.31615807903955,153.97321440322253 223.23961980990498,152.64355039391248 230.16308154077038,151.37042503082398 237.08654327163583,150.14922562692345 244.01000500250126,148.97588192684498 250.9334667333667,147.84678425523396 257.85692846423217,146.75871654448963 264.78039019509754,145.7088011096354 271.703851925963,144.69445278131315 278.62731365682845,143.71334055618914 285.5507753876939,142.76336993223674 292.47423711855936,141.8425963399377 299.3976988494247,140.94929219731674 306.32116058029015,140.0818658790453 313.2446223111556,139.23886020608168 320.16808404202106,138.4189377170057 327.0915457728865,137.620867902621 334.01500750375186,136.84351609792796 340.93846923461734,136.08583377977186 347.8619309654827,135.34685006196497 354.78539269634814,134.62566421479525 361.7088544272136,133.92143906433586 368.632316158079,133.23339515023378 375.5557778889445,132.5608055397344 382.4792396198099,131.90299121142777 389.40270135067533,131.25931693522156 396.32616308154076,130.62918758587514 403.2496248124062,130.01204483647143 410,129.4223295963764" fill="none" stroke="#e8902a" stroke-width="2"/><line x1="422" y1="100" x2="440" y2="100" stroke="#e8902a" stroke-width="2.5"/><text x="444" y="103" font-size="10" fill="#333" text-anchor="start">accel_bias</text><text x="237" y="388" font-size="11" fill="#333" text-anchor="middle">time (s)</text><text x="18" y="195" font-size="11" fill="#333" text-anchor="middle" transform="rotate(-90 18 195)">position drift (mm, log)</text>
</svg>