<svg xmlns="http://www.w3.org/2000/svg" viewBox="0 0 320 320" role="img" aria-label="Cortex">
  <defs>
    <linearGradient id="g" x1="0" y1="0" x2="1" y2="1">
      <stop offset="0" stop-color="#2f80ed"/>
      <stop offset="1" stop-color="#9ec5fe"/>
    </linearGradient>
  </defs>
  <rect width="320" height="320" rx="36" fill="#0d1521"/>
  <!-- spatial-dataflow tile grid -->
  <g fill="none" stroke="url(#g)" stroke-width="3" opacity="0.85">
    <rect x="64" y="64" width="48" height="48" rx="6"/>
    <rect x="136" y="64" width="48" height="48" rx="6"/>
    <rect x="208" y="64" width="48" height="48" rx="6"/>
    <rect x="64" y="136" width="48" height="48" rx="6"/>
    <rect x="136" y="136" width="48" height="48" rx="6"/>
    <rect x="208" y="136" width="48" height="48" rx="6"/>
    <rect x="64" y="208" width="48" height="48" rx="6"/>
    <rect x="136" y="208" width="48" height="48" rx="6"/>
    <rect x="208" y="208" width="48" height="48" rx="6"/>
  </g>
  <!-- dataflow edges -->
  <g stroke="#9ec5fe" stroke-width="3" opacity="0.55">
    <line x1="112" y1="88" x2="136" y2="88"/>
    <line x1="184" y1="88" x2="208" y2="88"/>
    <line x1="88" y1="112" x2="88" y2="136"/>
    <line x1="160" y1="112" x2="160" y2="136"/>
    <line x1="232" y1="160" x2="232" y2="208"/>
    <line x1="112" y1="232" x2="136" y2="232"/>
  </g>
</svg>
