<svg xmlns="http://www.w3.org/2000/svg" width="560" height="400" viewBox="0 0 560 400" font-family="-apple-system,Segoe UI,Roboto,sans-serif">
<rect width="560" height="400" fill="#ffffff"/>
<text x="280" y="22" text-anchor="middle" font-size="15" font-weight="600" fill="#1a1a1a">S2  Position σ growth — cortex diagonal Q vs canonical Q_d</text>
<rect x="64" y="40" width="346" height="310" fill="#fafafa" stroke="#ddd"/><line x1="64" y1="350" x2="410" y2="350" stroke="#eee" stroke-width="1"/><text x="58" y="353" font-size="9" fill="#666" text-anchor="end">0.00</text><line x1="64" y1="288" x2="410" y2="288" stroke="#eee" stroke-width="1"/><text x="58" y="291" font-size="9" fill="#666" text-anchor="end">0.72</text><line x1="64" y1="226" x2="410" y2="226" stroke="#eee" stroke-width="1"/><text x="58" y="229" font-size="9" fill="#666" text-anchor="end">1.43</text><line x1="64" y1="164" x2="410" y2="164" stroke="#eee" stroke-width="1"/><text x="58" y="167" font-size="9" fill="#666" text-anchor="end">2.15</text><line x1="64" y1="101.99999999999999" x2="410" y2="101.99999999999999" stroke="#eee" stroke-width="1"/><text x="58" y="104.99999999999999" font-size="9" fill="#666" text-anchor="end">2.86</text><line x1="64" y1="40" x2="410" y2="40" stroke="#eee" stroke-width="1"/><text x="58" y="43" font-size="9" fill="#666" text-anchor="end">3.58</text><line x1="64" y1="350" x2="64" y2="354" stroke="#999" stroke-width="1"/><text x="64" y="366" font-size="9" fill="#666" text-anchor="middle">0.0</text><line x1="150.5" y1="350" x2="150.5" y2="354" stroke="#999" stroke-width="1"/><text x="150.5" y="366" font-size="9" fill="#666" text-anchor="middle">0.1</text><line x1="237" y1="350" x2="237" y2="354" stroke="#999" stroke-width="1"/><text x="237" y="366" font-size="9" fill="#666" text-anchor="middle">0.3</text><line x1="323.49999999999994" y1="350" x2="323.49999999999994" y2="354" stroke="#999" stroke-width="1"/><text x="323.49999999999994" y="366" font-size="9" fill="#666" text-anchor="middle">0.4</text><line x1="410" y1="350" x2="410" y2="354" stroke="#999" stroke-width="1"/><text x="410" y="366" font-size="9" fill="#666" text-anchor="middle">0.5</text><polyline points="64,350 67.4949494949495,349.4692088825263 70.98989898989899,348.8131110092102 74.48484848484848,348.01394954787696 77.97979797979798,347.0927022810265 81.47474747474747,346.0634630332787 84.96969696969697,344.93639912091845 88.46464646464646,343.71929421830527 91.95959595959596,342.4182937877119 95.45454545454547,341.0384598178087 98.94949494949495,339.58400485396174 102.44444444444446,338.05864737757446 105.93939393939394,336.46533443684535 109.43434343434345,334.80692640208474 112.92929292929293,333.0858502541619 116.42424242424244,331.30427294028175 119.91919191919192,329.46410137398436 123.41414141414141,327.56724246881 126.9090909090909,325.6151697488578 130.40404040404042,323.6093567382272 133.8989898989899,321.5513636389055 137.39393939393938,319.44223058555104 140.8888888888889,317.28325774648675 144.3838383838384,315.0754852563708 147.87878787878788,312.8200399277498 151.37373737373738,310.51770186161735 154.8686868686869,308.16942451474364 158.36363636363637,305.7760746660105 161.85858585858585,303.33851909429995 165.35353535353534,300.85736454482924 168.84848484848487,298.3334777964803 172.34343434343435,295.7673789165823 175.83838383838383,293.1597613282408 179.33333333333334,290.511231776673 182.82828282828282,287.8223970070964 186.32323232323233,285.0937770868401 189.8181818181818,282.3259787611213 193.31313131313132,279.519348741493 196.80808080808083,276.67449377317234 200.3030303030303,273.79184724560037 203.7979797979798,270.87184254821807 207.2929292929293,267.91482639257816 210.78787878787878,264.92140552389793 214.2828282828283,261.8919266537302 217.7777777777778,258.82612974841044 221.27272727272728,255.72566168781424 224.76767676767676,252.58965569305963 228.26262626262627,249.41897854302857 231.75757575757575,246.214497016603 235.25252525252526,242.975344334901 238.74747474747477,239.70238727680444 242.24242424242425,236.39562584231334 245.73737373737376,233.05679358919153 249.23232323232324,229.6841569596752 252.72727272727275,226.27858273264624 256.22222222222223,222.84093768698656 259.7171717171717,219.37122182269616 263.2121212121212,215.86943513977505 266.70707070707067,212.33644441710518 270.2020202020202,208.77138287580456 273.69696969696975,205.17511729475513 277.19191919191917,201.54851445283884 280.6868686868687,197.8898407922918 284.1818181818182,194.2016966497598 287.67676767676767,190.482348467479 291.1717171717172,186.73266302433132 294.6666666666667,182.95350709919862 298.16161616161617,179.1440139131991 301.65656565656565,175.3041834663326 305.1515151515151,171.43574931636311 308.64646464646466,167.53697790552667 312.1414141414141,163.6096027915872 315.6363636363636,159.6527571956628 319.13131313131316,155.66730789663524 322.62626262626264,151.6532548945046 326.1212121212121,147.60973141038903 329.61616161616166,143.5384710020523 333.11111111111114,139.4377401117306 336.6060606060606,135.30927229718773 340.1010101010101,131.1530675584237 343.59595959595964,126.9682591165566 347.09090909090907,122.75571375046833 350.5858585858586,118.51543146015891 354.0808080808081,114.24741224562835 357.57575757575756,109.95165610687664 361.07070707070704,105.62816304390373 364.5656565656566,101.27779983559162 368.06060606060606,96.89969970305832 371.5555555555556,92.49472942518582 375.0505050505051,88.0620222230921 378.54545454545456,83.60331165454107 382.04040404040404,79.11686416176892 385.5353535353536,74.60441330253937 389.030303030303,70.0642255190887 392.52525252525254,65.49803436918067 396.020202020202,60.90497307393345 399.5151515151515,56.285908412228856 403.010101010101,51.639973605185006 406.5050505050505,46.96803543168384 410,42.26922711284344" fill="none" stroke="#2a6fdb" stroke-width="2"/><line x1="422" y1="46" x2="440" y2="46" stroke="#2a6fdb" stroke-width="2.5"/><text x="444" y="49" font-size="10" fill="#333" text-anchor="start">cortex (diagonal Q)</text><polyline points="64,349.7346044412631 67.4949494949495,349.160744814705 70.98989898989899,348.4298993977285 74.48484848484848,347.5676017626368 77.97979797979798,346.59089798292166 81.47474747474747,345.5116715970541 84.96969696969697,344.33876374962955 88.46464646464646,343.0790566649704 91.95959595959596,341.7381150634986 95.45454545454547,340.32059354780984 98.94949494949495,338.8302539382518 102.44444444444446,337.27065869602905 105.93939393939394,335.6445815135637 109.43434343434345,333.9546227275015 112.92929292929293,332.2031226408236 116.42424242424244,330.3921615228466 119.91919191919192,328.5235596092225 123.41414141414141,326.5990504577152 126.9090909090909,324.6201075924238 130.40404040404042,322.5882912153358 133.8989898989899,320.5047281389978 137.39393939393938,318.3708052096207 140.8888888888889,316.1874758839746 144.3838383838384,313.95604033038256 147.87878787878788,311.6771919719499 151.37373737373738,309.3521442991114 154.8686868686869,306.9815040570844 158.36363636363637,304.5663113805271 161.85858585858585,302.10717301465695 165.35353535353534,299.6048690604676 168.84848484848487,297.0601796189528 172.34343434343435,294.4736247574417 175.83838383838383,291.84589789903987 179.33333333333334,289.1776057889645 182.82828282828282,286.46926849454485 186.32323232323233,283.7214060831101 189.8181818181818,280.93462529987755 193.31313131313132,278.10935953428805 196.80808080808083,275.24612885367094 200.3030303030303,272.3452799695789 203.7979797979798,269.40733294934097 207.2929292929293,266.43263450451 210.78787878787878,263.42161802452705 214.2828282828283,260.3750636103857 217.7777777777778,257.2919311274277 221.27272727272728,254.17499426807518 224.76767676767676,251.02165269568232 228.26262626262627,247.83537352577687 231.75757575757575,244.6135564217131 235.25252525252526,241.35880172013668 238.74747474747477,238.06937586328382 242.24242424242425,234.7478791878002 245.73737373737376,231.3925781359221 249.23232323232324,228.00433948653136 252.72727272727275,224.5840300185099 256.22222222222223,221.13078295297584 259.7171717171717,217.64633184769298 263.2121212121212,214.12980992377936 266.70707070707067,210.582083960117 270.2020202020202,207.00228717782386 273.69696969696975,203.39128635578197 277.19191919191917,199.74994827287316 280.6868686868687,196.07740615021558 284.1818181818182,192.37452676669108 287.67676767676767,188.64131012229967 291.1717171717172,184.87862299592334 294.6666666666667,181.0847318297982 298.16161616161617,177.26223696056996 301.65656565656565,173.40940483047484 305.1515151515151,169.52710221839473 308.64646464646466,165.61532912432966 312.1414141414141,161.6740855482796 315.6363636363636,157.70510504800836 319.13131313131316,153.70578728687025 322.62626262626264,149.678732601511 326.1212121212121,145.62307421304868 329.61616161616166,141.53794534260135 333.11111111111114,137.42507954793288 336.6060606060606,133.28447682904323 340.1010101010101,129.11527040705056 343.59595959595964,124.91832706083666 347.09090909090907,120.69364679040167 350.5858585858586,116.44122959574553 354.0808080808081,112.1610754768682 357.57575757575756,107.8531844337697 361.07070707070704,103.51755646645009 364.5656565656566,99.15592513267309 368.06060606060606,94.76569009579302 371.5555555555556,90.34945169245566 375.0505050505051,85.90547636489711 378.54545454545456,81.43463089199936 382.04040404040404,76.93691527376235 385.5353535353536,72.41232951018605 389.030303030303,67.86174038015245 392.52525252525254,63.284281104779595 396.020202020202,58.67995168406751 399.5151515151515,54.04961889689807 403.010101010101,49.39241596438936 406.5050505050505,44.70920966542332 410,40" fill="none" stroke="#22a06b" stroke-width="2"/><line x1="422" y1="64" x2="440" y2="64" stroke="#22a06b" stroke-width="2.5"/><text x="444" y="67" font-size="10" fill="#333" text-anchor="start">canonical Q_d</text><text x="237" y="388" font-size="11" fill="#333" text-anchor="middle">propagation time (s)</text><text x="18" y="195" font-size="11" fill="#333" text-anchor="middle" transform="rotate(-90 18 195)">position σ (mm)</text>
</svg>