<svg xmlns="http://www.w3.org/2000/svg" width="560" height="400" viewBox="0 0 560 400" font-family="-apple-system,Segoe UI,Roboto,sans-serif">
<rect width="560" height="400" fill="#ffffff"/>
<text x="280" y="22" text-anchor="middle" font-size="15" font-weight="600" fill="#1a1a1a">S1  Static init: roll/pitch leveling error vs accel noise</text>
<rect x="64" y="40" width="346" height="310" fill="#fafafa" stroke="#ddd"/><line x1="64" y1="350" x2="410" y2="350" stroke="#eee" stroke-width="1"/><text x="58" y="353" font-size="9" fill="#666" text-anchor="end">0.00</text><line x1="64" y1="288" x2="410" y2="288" stroke="#eee" stroke-width="1"/><text x="58" y="291" font-size="9" fill="#666" text-anchor="end">0.05</text><line x1="64" y1="226" x2="410" y2="226" stroke="#eee" stroke-width="1"/><text x="58" y="229" font-size="9" fill="#666" text-anchor="end">0.11</text><line x1="64" y1="164" x2="410" y2="164" stroke="#eee" stroke-width="1"/><text x="58" y="167" font-size="9" fill="#666" text-anchor="end">0.16</text><line x1="64" y1="101.99999999999999" x2="410" y2="101.99999999999999" stroke="#eee" stroke-width="1"/><text x="58" y="104.99999999999999" font-size="9" fill="#666" text-anchor="end">0.21</text><line x1="64" y1="40" x2="410" y2="40" stroke="#eee" stroke-width="1"/><text x="58" y="43" font-size="9" fill="#666" text-anchor="end">0.27</text><line x1="64" y1="350" x2="64" y2="354" stroke="#999" stroke-width="1"/><text x="64" y="366" font-size="9" fill="#666" text-anchor="middle">0.0</text><line x1="150.5" y1="350" x2="150.5" y2="354" stroke="#999" stroke-width="1"/><text x="150.5" y="366" font-size="9" fill="#666" text-anchor="middle">0.1</text><line x1="237" y1="350" x2="237" y2="354" stroke="#999" stroke-width="1"/><text x="237" y="366" font-size="9" fill="#666" text-anchor="middle">0.3</text><line x1="323.5" y1="350" x2="323.5" y2="354" stroke="#999" stroke-width="1"/><text x="323.5" y="366" font-size="9" fill="#666" text-anchor="middle">0.4</text><line x1="410" y1="350" x2="410" y2="354" stroke="#999" stroke-width="1"/><text x="410" y="366" font-size="9" fill="#666" text-anchor="middle">0.5</text><polyline points="64,343.84730191898615 92.24489795918367,319.2172859086433 127.55102040816328,288.38657085516274 198.16326530612244,226.58043881869224 304.0816326530612,133.50867038988565 410,40" fill="none" stroke="#2a6fdb" stroke-width="2"/><line x1="422" y1="46" x2="440" y2="46" stroke="#2a6fdb" stroke-width="2.5"/><text x="444" y="49" font-size="10" fill="#333" text-anchor="start">leveling error (accepted)</text><text x="237" y="388" font-size="11" fill="#333" text-anchor="middle">accel noise σ (m/s²)</text><text x="18" y="195" font-size="11" fill="#333" text-anchor="middle" transform="rotate(-90 18 195)">leveling error (deg)</text>
</svg>